<svg id="圖層_1" data-name="圖層 1" xmlns="http://www.w3.org/2000/svg" viewBox="0 0 309.86 113.96"><defs><style>.cls-1{fill:#d80c18;}.cls-2{fill:#fff;}</style></defs><rect class="cls-1" width="309.86" height="113.96"/><path class="cls-2" d="M33.61,32.41a7.8,7.8,0,0,0,5.71,1c1.85-.49,3.71-1,5.58-1.51,3.25-.94,6.49-1.94,9.76-2.82,1.64-.43,3.27-.85,4.92-1.21a14,14,0,0,0,2.19-.54c.69-.29,1.34-.75,2.07-1.09,1-.48,2.14-.93,3.18-1.36,3.08-1.26,9.75-2.83,8.11-7.63l0,0c-.52-1.53-2.12-2.21-3.43-2.94a8.3,8.3,0,0,0-4.56-.58A7,7,0,0,0,63,15.23c-1.61,2-4.25,2.62-6.32,4.25C56,20,55,20,54.31,20.57c-.34.27-.46.5-.88.62a7.08,7.08,0,0,1-1.13.09c-.66.09-1.37.18-2.07.3a22.42,22.42,0,0,0-5.83,1.59,22,22,0,0,0-2.68,1.59,4.51,4.51,0,0,1-2.52.39c-.85.05-1.69.16-2.54.29s-1.68.28-2.52.41l-1.28.2c-.24,0-1.09,0-1.28.15a1.78,1.78,0,0,0-.4,2.23C31.91,30,32,31.47,33.61,32.41Z"/><path class="cls-2" d="M160.21,30.18c1.53-.42,2.84-.76,3.65-2.23.26-.45.51-.91.74-1.38a5.51,5.51,0,0,0,.72-3,4.51,4.51,0,0,0-1.82-1.95,15.25,15.25,0,0,0-4.66-1.42c-1.9-.4-3.86-.87-5.77-1.12a8.86,8.86,0,0,0-3.36.26,39.38,39.38,0,0,0-6.32,2.28c-2.34,1-5.15.41-7.36,1.84a8.8,8.8,0,0,1-3,.81c-1.3.3-2.52.82-3.78,1.22-2.16.7-4.33,1.38-6.53,2-1.56.42-3.2,0-4.74.74a15.19,15.19,0,0,1-1.89,1.16c-.72.24-1.42.57-2.07.8-2.49.87-5.19,1.48-7.73,2.15-4.51,1.54-9.56.87-14.2,1.75a7.46,7.46,0,0,0-3.77,1.61c-.35,1.54.68,2.13,1.92,3s1.93,2.24,3.17,3a20.7,20.7,0,0,0,3.51,1.55c2.71,1.09,5.27,2.54,8.19,3.1,1.6.31,4.89.69,6.35-.28,1.73-1.13,3.68-1.94,5.33-3.2.78-.58,1.37-1.31,2.2-1.87a27.36,27.36,0,0,0,2.57-1.59A18.62,18.62,0,0,1,125,36.64c1.6-.27,3.09-2.09,4.71-.94.76.35.38.92.44,1.73s.55,1.53.55,2.36a8.71,8.71,0,0,1-.39,2.37v1.35c.8,15.4-.54,30-1.89,45.54-.62,1.92.15,3.67.57,5.52a8,8,0,0,0,.49,2.16,7.71,7.71,0,0,0,3.25,3.1c2.74.89,6.58,1.35,8.74-1,2.19-1,2.9-3.15,3.22-5.37a56.4,56.4,0,0,0,.62-6.08,16.22,16.22,0,0,0-.73-4.74c-.19-.79-.24-1.61-.43-2.4-.3-1.27-.7-2.52-.92-3.82a121.43,121.43,0,0,1-1.42-18.56c.14-4.17-.94-9.28-1.48-12.92-1.21-2.69.47-5.38-.8-8.07-.58-1.28-.35-3-.35-4.39,0-1.2.84-1.64,1.82-2.16a6.33,6.33,0,0,0,1-.68,3.37,3.37,0,0,1,1.17-.5c.39-.12.79-.25,1.19-.35,2.9-.75,6.17-1.23,8.84.48a5.86,5.86,0,0,0,2.34,1.13A9.47,9.47,0,0,0,160.21,30.18Z"/><path class="cls-2" d="M107.77,88.38a8.88,8.88,0,0,0-2-1.39c-.8-.31-1.69-.35-2.51-.65a30.58,30.58,0,0,1-5.91-3.11,10.38,10.38,0,0,0-1.24-.84,6.47,6.47,0,0,0-1.32-.19c-.86-.17-1.34-1-2.07-1.34-.32-.17-.76-.24-1-.55a10.91,10.91,0,0,0-2.58-1.6c-.82-.55-1.74-.73-2.59-1.22A16.92,16.92,0,0,1,84.5,76a19.72,19.72,0,0,0-3.93-3.11c-5-2.28-8.4-8.13-12.11-12C66,58.67,63,55.57,63,51.74c1.08-2.42,4-3.23,6.12-4.38,2.69-2,6.53-3.15,8.07-6.32a4,4,0,0,0-.2-3.69c-.88-1.82-3.09-1.75-4.84-2.42A7.77,7.77,0,0,0,69,35.3a13,13,0,0,0-4.56,2.92c-.63.56-1.17,1.26-1.82,1.79a7.93,7.93,0,0,1-2.29,1,2.08,2.08,0,0,1-2.45-.38,18.15,18.15,0,0,0-2.77-5h0a2.74,2.74,0,0,0-1.3-.39c-.4-.11-.66-.44-1-.54-.66-.18-1.45.26-2.07.26a6.78,6.78,0,0,0-2.42.1A4.91,4.91,0,0,0,46,36.87c-.62.92-.36,1.62-.48,2.65a20.39,20.39,0,0,1-.38,2.07,10.31,10.31,0,0,0-.28,2.07,17.61,17.61,0,0,0,.38,1.92A5.41,5.41,0,0,1,43,50.3a14.36,14.36,0,0,1-2.2,1.52c-.9.49-1.93.63-2.85,1a17.58,17.58,0,0,0-2.48,1.44c-.79.48-1.56,1-2.42,1.52s-1.84.62-2.67,1c-1.48.74-3.23.87-4.71,1.48-1.6.34-4.42-.32-5.17,1.75a8.44,8.44,0,0,0,2.42,4.71c.87,2,3.43,2.62,5.18,3.9,2.61.83,5.24-.4,7.73-.2.94,3.47.67,7.13-1.75,9.68a13.21,13.21,0,0,1-2,3.83,14.94,14.94,0,0,1-1.4,1.57c-.4.46-.43,1-1,1.49s-1,1.27-1.71,1.67c-1,.55-1.26-.13-2-.6a4.43,4.43,0,0,0-1.49-.57,6.63,6.63,0,0,0-3.1.08,3.72,3.72,0,0,0-1.69,1.59c-.44.57-1.09,1.18-1,1.94A11.14,11.14,0,0,0,19,90.58c.18,1-.17,1.55.5,2.44.48.68.37,1,.48,1.78a2.56,2.56,0,0,0,.49,1A7.35,7.35,0,0,0,22,97.3a6.74,6.74,0,0,0,1.65.89,16.53,16.53,0,0,1,1.69.39,6.27,6.27,0,0,0,3.33.83c2-.1,3.66-.92,5.5-1.5A12.64,12.64,0,0,0,36.69,97a14.79,14.79,0,0,0,2.06-1.72c.86-.76,1.69-1.54,2.48-2.37a34.28,34.28,0,0,0,3.85-4.73,30,30,0,0,0,1.55-2.62c.41-.8.61-1.66,1-2.46.2-.45.5-.84.69-1.29a18.59,18.59,0,0,0,.94-2.52A8.25,8.25,0,0,1,50.1,77a12.77,12.77,0,0,0,1-4.14c.12-.64.34-1.13.46-1.88s.1-1.54.26-2.3a9.51,9.51,0,0,1,1.34-3.1A6,6,0,0,1,57.07,68a16.85,16.85,0,0,0,1.69,1.69c.7.6,1.17,1.41,1.88,2,2,1.67,3.49,4.14,5,6.21,1.83,2.61,3.69,5.38,5.39,7.9s3.4,5.08,5.84,6.93a55.93,55.93,0,0,0,5.69,4.35c1.48.85,3.4.63,5,.63a76.53,76.53,0,0,0,9-.56c1.48-.14,3-.3,4.42-.41.68,0,1.38,0,2.07-.12,1.24-.14,2.52-.72,3.74-.91s2.74-.42,3.57-1.46a3.42,3.42,0,0,0,.7-3C110.47,89.9,108.92,89.17,107.77,88.38Z"/><path class="cls-2" d="M191.18,77.54a7.6,7.6,0,0,0,1.71-.19,6.28,6.28,0,0,0,1.58-.54l.36-1.32h-.2a4.84,4.84,0,0,1-1.45.86,4.29,4.29,0,0,1-1.59.31,3.34,3.34,0,0,1-2.8-1.22,5.6,5.6,0,0,1-1-3.53,5.24,5.24,0,0,1,1-3.34,3.08,3.08,0,0,1,2.63-1.19,3.62,3.62,0,0,1,1.88.46,2.24,2.24,0,0,1,1,1.31h.23a6.85,6.85,0,0,1,.16-1,6,6,0,0,1,.23-.9,9.58,9.58,0,0,0-1.76-.59,7.77,7.77,0,0,0-1.73-.19A6.28,6.28,0,0,0,187,68a5.17,5.17,0,0,0-1.66,4,5.46,5.46,0,0,0,1.53,4.13A5.94,5.94,0,0,0,191.18,77.54Z"/><path class="cls-2" d="M203.47,73.66a4,4,0,0,0-1-2.94,3.91,3.91,0,0,0-2.91-1,3,3,0,0,0-.73,0,3.62,3.62,0,0,0-3.22,4,4,4,0,0,0,1,2.91,3.87,3.87,0,0,0,2.9,1,2.73,2.73,0,0,0,.7,0A3.61,3.61,0,0,0,203.47,73.66Zm-5.19,2.51a6,6,0,0,1-.39-2.51h0a6.29,6.29,0,0,1,.35-2.54,1.29,1.29,0,0,1,1.25-.73,1.32,1.32,0,0,1,1.26.73,6.29,6.29,0,0,1,.38,2.54,5.8,5.8,0,0,1-.38,2.51,1.31,1.31,0,0,1-1.24.74A1.28,1.28,0,0,1,198.28,76.17Z"/><path class="cls-2" d="M216.5,77.41a13.14,13.14,0,0,1-.06-1.5V73.57a11.89,11.89,0,0,0-.13-2.15,2,2,0,0,0-.45-1,2,2,0,0,0-.79-.57,2.6,2.6,0,0,0-1-.18,2.65,2.65,0,0,0-1.43.36,3,3,0,0,0-1,1.1,2.18,2.18,0,0,0-2.18-1.46,2.66,2.66,0,0,0-1.27.29,3.06,3.06,0,0,0-1,.92v-1H204.9c.07.85.07,1.59.07,2.21v1.54a11.46,11.46,0,0,1,0,1.56,21.48,21.48,0,0,0-.07,2.22l.39-.09h1.09l.58.07v-.15A12.24,12.24,0,0,1,206.9,76v-2.5a4.22,4.22,0,0,1,.3-1.92,1.17,1.17,0,0,1,2,0,7.53,7.53,0,0,1,.27,2.59V75.7q0,.81-.09,1.71l.61-.07h1.11l.62.07v-.16a12.08,12.08,0,0,1-.06-1.27v-2.5a4.5,4.5,0,0,1,.3-1.92,1,1,0,0,1,1-.54,1,1,0,0,1,1,.54,6,6,0,0,1,.27,2.31c0,.5,0,1,0,1.63s-.1,1.21-.1,1.91l.6-.07h1.1Z"/><path class="cls-2" d="M218.5,77.42l.33-.08h1.08l.57.07a.38.38,0,0,0,0-.15c0-.61,0-1,0-1.28v-2.5a4.66,4.66,0,0,1,.29-1.92,1,1,0,0,1,1-.54,1.06,1.06,0,0,1,1,.53,7.07,7.07,0,0,1,.27,2.59V75.7c0,.54,0,1.11-.1,1.71l.63-.07h1.1l.62.07v-.16c0-.61,0-1,0-1.27v-2.5a4.35,4.35,0,0,1,.29-1.92,1.21,1.21,0,0,1,2,0,6,6,0,0,1,.28,2.31c0,.5,0,1,0,1.63s-.1,1.21-.1,1.91l.59-.07h1.1l.63.07V73.57a11.89,11.89,0,0,0-.13-2.15,1.92,1.92,0,0,0-.46-1,1.9,1.9,0,0,0-.77-.57,3,3,0,0,0-2.46.18,3,3,0,0,0-1,1.1,2.1,2.1,0,0,0-.83-1.09,2.29,2.29,0,0,0-1.34-.37,2.61,2.61,0,0,0-1.28.29,3,3,0,0,0-1,.92v-1H218.5c.06.85.06,1.59.06,2.21v1.54c0,.41,0,.92,0,1.56S218.5,76.58,218.5,77.42Z"/><path class="cls-2" d="M239.49,73.66a4,4,0,0,0-1-2.94,4.14,4.14,0,0,0-6.85,2.94h0a2.67,2.67,0,0,0,0,.4,3.94,3.94,0,1,0,7.87-.4Zm-2.7,2.51a1.43,1.43,0,0,1-2.5,0,6,6,0,0,1-.37-2.51h0a6.12,6.12,0,0,1,.42-2.54,1.27,1.27,0,0,1,1.25-.73,1.31,1.31,0,0,1,1.25.73,6,6,0,0,1,.38,2.54A5.8,5.8,0,0,1,236.79,76.17Z"/><path class="cls-2" d="M245.26,71.49a5.45,5.45,0,0,1,.28,2.2c0,.77,0,1.5,0,2.07s-.09,1.16-.09,1.6l.61-.06h1.11l.61.06a7.55,7.55,0,0,1-.07-1.27V72.74a7.92,7.92,0,0,0-.1-1.54,2.17,2.17,0,0,0-.38-.76,2.39,2.39,0,0,0-.8-.57,2.63,2.63,0,0,0-1-.19,2.81,2.81,0,0,0-1.34.31,3,3,0,0,0-1,.94v-1h-2.14a13,13,0,0,1,.09,1.88v1.9c0,.56,0,1.15,0,1.77s-.09,1.28-.09,2l.39-.13h1.1a5.7,5.7,0,0,1,.58.06c-.06-.81-.06-1.54-.06-2.17v-1.6a4.55,4.55,0,0,1,.31-2,1,1,0,0,1,1-.59A1,1,0,0,1,245.26,71.49Z"/><path class="cls-2" d="M263.41,66.67h-.73c-.3,1.33-.65,2.64-1,3.93s-.8,2.55-1.23,3.82c-.48-1.35-.92-2.65-1.35-4s-.82-2.55-1.18-3.8H256.3c-.4,1.23-.84,2.48-1.27,3.77s-.9,2.65-1.4,4.08c-.4-1.29-.78-2.61-1.13-3.91s-.68-2.62-1-3.94h-2.66c.64,1.86,1.24,3.68,1.78,5.47s1,3.55,1.49,5.28l.39-.07h.77a2.7,2.7,0,0,1,.41.07c.44-1.34.88-2.64,1.33-3.92s.9-2.5,1.37-3.7c.49,1.33.93,2.64,1.36,3.9s.81,2.5,1.18,3.72l.43-.07h.77a3.07,3.07,0,0,1,.42.07c.63-2,1.25-3.91,1.84-5.68s1.16-3.47,1.72-5.07h-.71Z"/><path class="cls-2" d="M268.25,69.76a3.63,3.63,0,0,0-2.74,1,3.82,3.82,0,0,0-1,2.78,4.2,4.2,0,0,0,1,3,3.81,3.81,0,0,0,2.88,1,5.29,5.29,0,0,0,1.43-.18,3.71,3.71,0,0,0,1.16-.53l.34-.89-.14-.12a3.36,3.36,0,0,1-1,.56,2.82,2.82,0,0,1-1,.19,2.17,2.17,0,0,1-1.75-.8,3.4,3.4,0,0,1-.64-2.16l4.81.07v-.5a3.53,3.53,0,0,0-.86-2.58A3.29,3.29,0,0,0,268.25,69.76Zm1.19,2.93v.2h-2.66l0-.13a3.62,3.62,0,0,1,.37-1.77,1.22,1.22,0,0,1,1-.62,1,1,0,0,1,.91.54,3.09,3.09,0,0,1,.32,1.61Z"/><path class="cls-2" d="M278.81,75.35V72.23a2.34,2.34,0,0,0-.76-1.86,3.18,3.18,0,0,0-2.16-.65,3.36,3.36,0,0,0-1.43.29,5,5,0,0,0-1.38.91,3.19,3.19,0,0,1,.16.41l.19.59a2.94,2.94,0,0,1,.8-.92,1.7,1.7,0,0,1,1-.33,1.42,1.42,0,0,1,1,.41,1.56,1.56,0,0,1,.42,1.14v.27a6.41,6.41,0,0,1-1.68.67l-.8.26a2.72,2.72,0,0,0-1.25.77,1.82,1.82,0,0,0-.4,1.23,2.12,2.12,0,0,0,.57,1.59,2,2,0,0,0,1.55.59,2.55,2.55,0,0,0,1.24-.3,2.35,2.35,0,0,0,.89-.88,1.34,1.34,0,0,0,.43.84,1.39,1.39,0,0,0,.94.29,3.72,3.72,0,0,0,.81-.09,4.06,4.06,0,0,0,.84-.25v-.35a1.06,1.06,0,0,1-.83-.28A2.28,2.28,0,0,1,278.81,75.35Zm-2.06-.19a1.91,1.91,0,0,1-.28,1.09,1,1,0,0,1-.81.37.87.87,0,0,1-.72-.33,1.72,1.72,0,0,1-.25-1,1.64,1.64,0,0,1,.48-1.26,3.28,3.28,0,0,1,1.58-.67Z"/><path class="cls-2" d="M283.29,65.61a1.93,1.93,0,0,1-.64.08,4.86,4.86,0,0,1-.54,0,4.69,4.69,0,0,1-1.16-.08c0,.86.08,1.77.08,2.73v3.2c0,1.11,0,2.14,0,3.1s-.08,1.89-.08,2.78a5.62,5.62,0,0,1,.57-.09c.2,0,.4,0,.61,0s.4,0,.6,0a5.43,5.43,0,0,1,.56.09,24.11,24.11,0,0,1-.1-2.74V71.49c0-1.11,0-2.15,0-3.11S283.29,66.5,283.29,65.61Z"/><path class="cls-2" d="M287.74,76.34a7.66,7.66,0,0,1-.18-2.24v-.63c0-.46.05-1.23.05-2.31v-.37h1.56v-.36a.38.38,0,0,1,0-.15V70h-1.53v-.5c0-.21,0-.51,0-.91s.07-.91.07-1.51l-.17-.12-1,.47a11.21,11.21,0,0,1-1,.44v1.51a2.41,2.41,0,0,1,0,.38.89.89,0,0,1,0,.23h-.18c-.15,0-.42-.06-.79-.06h-.1v.66a.38.38,0,0,1,0,.15h1v4.79a2.15,2.15,0,0,0,.53,1.57,2,2,0,0,0,1.54.52,3.47,3.47,0,0,0,.85-.1,5.38,5.38,0,0,0,.95-.34v-.6a4.59,4.59,0,0,1-.9.16A.65.65,0,0,1,287.74,76.34Z"/><path class="cls-2" d="M297.2,76.22V72.76a6.37,6.37,0,0,0-.12-1.51,1.83,1.83,0,0,0-.39-.79,2.06,2.06,0,0,0-.79-.57,2.61,2.61,0,0,0-1-.19,2.8,2.8,0,0,0-1.39.33,2.74,2.74,0,0,0-1,1V68.58c0-.55,0-1.09,0-1.58s.11-1,.11-1.39l-.59.09h-1.1l-.61-.09a15.38,15.38,0,0,1,.11,2.37v3.83c0,1.54,0,2.71,0,3.54s-.06,1.51-.11,2.07l.51-.12h1.1l.59.06a18.52,18.52,0,0,1-.08-2.07V73.6a4.72,4.72,0,0,1,.31-2,1.05,1.05,0,0,1,1-.59,1,1,0,0,1,1,.5,5.49,5.49,0,0,1,.27,2.2c0,.77,0,1.5,0,2.07s-.08,1.16-.08,1.61l.61-.07h1.09l.62.07A6.13,6.13,0,0,1,297.2,76.22Z"/><path class="cls-2" d="M198.12,91.74l-.9-7.52h-1.44c-.58,1.29-1.16,2.54-1.76,3.77s-1.21,2.41-1.83,3.57c-.64-1.2-1.26-2.41-1.87-3.63s-1.19-2.46-1.76-3.71h-1.38l-1,7.43c0,.19-.11.66-.19,1.23s-.2,1.26-.32,2.07H186a2.08,2.08,0,0,1,.61,0H187c0-.7.11-1.89.3-3.57v-.13l.38-3.27c.57,1,1.15,2.15,1.73,3.31s1.18,2.38,1.78,3.66h.64c.61-1.3,1.23-2.55,1.81-3.74s1.17-2.35,1.76-3.48l.5,5A15,15,0,0,1,196,94.8V95h2.63c-.09-.37-.17-.79-.24-1.27S198.21,92.57,198.12,91.74Z"/><path class="cls-2" d="M206.15,94.08a2.27,2.27,0,0,1-.22-1.23v-.3l.13-2.78V89.7a2.36,2.36,0,0,0-.76-1.87,3.25,3.25,0,0,0-2.17-.66,3.84,3.84,0,0,0-1.42.3,5.75,5.75,0,0,0-1.39.91,3.19,3.19,0,0,1,.16.41l.2.59a2.66,2.66,0,0,1,.79-.91,1.68,1.68,0,0,1,1-.3,1.43,1.43,0,0,1,1,.42,1.54,1.54,0,0,1,.4,1.14V90a7.37,7.37,0,0,1-1.68.67l-.8.25a2.69,2.69,0,0,0-1.25.78,1.83,1.83,0,0,0-.41,1.25,2.28,2.28,0,0,0,.57,1.6,2.07,2.07,0,0,0,1.56.59A2.42,2.42,0,0,0,204,94a1.42,1.42,0,0,0,.45.84,1.46,1.46,0,0,0,.92.29,3.84,3.84,0,0,0,.83-.09,4.71,4.71,0,0,0,.83-.26v-.39H207A1,1,0,0,1,206.15,94.08Zm-2.23-1.32a1.89,1.89,0,0,1-.28,1,1,1,0,0,1-.81.37.83.83,0,0,1-.73-.34,1.71,1.71,0,0,1-.24-1,1.63,1.63,0,0,1,.48-1.25,3.29,3.29,0,0,1,1.58-.68Z"/><path class="cls-2" d="M214.24,94.12a5.22,5.22,0,0,0-1.84-.3h-.28c-1.49,0-2.23-.32-2.23-.8a.77.77,0,0,1,.18-.52.83.83,0,0,1,.51-.23h.26a4.39,4.39,0,0,0,2.61-.69,2.23,2.23,0,0,0,.94-1.91,2.15,2.15,0,0,0-.21-.94,1.78,1.78,0,0,0-.61-.67h1.55V87.3H213.7c-.51,0-1.07-.06-1.68-.06l-1-.07a3.77,3.77,0,0,0-2.36.7,2.37,2.37,0,0,0-.37,3.31,2.77,2.77,0,0,0,1.52.77v.18a3.29,3.29,0,0,0-1.17.78,1.47,1.47,0,0,0-.4,1,1.17,1.17,0,0,0,.26.78,1.38,1.38,0,0,0,.74.46v.13a2.88,2.88,0,0,0-1.2.74,1.7,1.7,0,0,0-.39,1.16,1.66,1.66,0,0,0,.88,1.49,4.64,4.64,0,0,0,2.45.54,5,5,0,0,0,3.11-.92,2.91,2.91,0,0,0,1.2-2.38,2.5,2.5,0,0,0-.28-1.07A1.88,1.88,0,0,0,214.24,94.12Zm-4-5.79a1,1,0,0,1,.9-.47.94.94,0,0,1,.85.41,2.33,2.33,0,0,1,.28,1.26,3.57,3.57,0,0,1-.27,1.58,1,1,0,0,1-.91.47,1,1,0,0,1-.89-.44,2.74,2.74,0,0,1-.28-1.43A2.47,2.47,0,0,1,210.21,88.33Zm2.53,9.81a2.79,2.79,0,0,1-1.66.44,2,2,0,0,1-1.46-.49,1.59,1.59,0,0,1-.54-1.28,1.77,1.77,0,0,1,.21-.84,1.5,1.5,0,0,1,.6-.57l1.81.12a2,2,0,0,1,1.26.38,1.29,1.29,0,0,1,.39,1A1.39,1.39,0,0,1,212.74,98.14Z"/><path class="cls-2" d="M222.21,94.08a2.38,2.38,0,0,1-.21-1.23v-.3l.06-2.75v-.07a2.35,2.35,0,0,0-.77-1.87,3.13,3.13,0,0,0-2.16-.65,3.53,3.53,0,0,0-1.43.3,5.21,5.21,0,0,0-1.38.9,1.21,1.21,0,0,1,.16.41l.18.59a3,3,0,0,1,.81-.91,1.65,1.65,0,0,1,1-.3,1.49,1.49,0,0,1,1,.42,1.58,1.58,0,0,1,.4,1.14V90a7.29,7.29,0,0,1-1.67.67l-.8.25a2.69,2.69,0,0,0-1.25.78,1.86,1.86,0,0,0-.41,1.22,2.18,2.18,0,0,0,.57,1.6,2,2,0,0,0,1.55.59A2.42,2.42,0,0,0,220,94a1.41,1.41,0,0,0,.5.84,1.5,1.5,0,0,0,.94.29,3.81,3.81,0,0,0,.82-.09,4.71,4.71,0,0,0,.83-.26v-.39H223A1.09,1.09,0,0,1,222.21,94.08Zm-2.29-1.32a1.74,1.74,0,0,1-.28,1,.93.93,0,0,1-.8.37.83.83,0,0,1-.73-.34,1.79,1.79,0,0,1-.25-1,1.68,1.68,0,0,1,.49-1.25,3.26,3.26,0,0,1,1.57-.68Z"/><path class="cls-2" d="M227,87.4h-3.12v.44a1.13,1.13,0,0,1,0,.26v.17h3.54L226,90.51l-2.74,4.19V95H230V94a7.48,7.48,0,0,1-1.34.08h-2.77l2.65-4.14,1.54-2.35V87.4H227Z"/><path class="cls-2" d="M233.72,89.4c0-.62.07-1.26.07-2h-2.32a16.48,16.48,0,0,1,.08,2v1.81c0,.52,0,1.1,0,1.67s-.09,1.27-.09,2.07h.6a5.42,5.42,0,0,1,.57,0,5.61,5.61,0,0,1,.58,0h.58c-.07-.78-.07-1.44-.07-2.07V91.21C233.72,90.62,233.71,90,233.72,89.4Z"/><path class="cls-2" d="M232.66,83.42a1.2,1.2,0,0,0-1.2,1.18h0a1.19,1.19,0,0,0,2,.84,1.19,1.19,0,0,0,.08-1.68A1.07,1.07,0,0,0,232.66,83.42Z"/><path class="cls-2" d="M242.73,92.29v-2a7.22,7.22,0,0,0-.11-1.54,1.8,1.8,0,0,0-.37-.76,2.32,2.32,0,0,0-.81-.58,3.1,3.1,0,0,0-2.39.12,3.28,3.28,0,0,0-1.13,1V87.43h-2.13c0,.62.09,1.26.09,1.88V91.2c0,.57,0,1.16,0,1.78s-.09,1.27-.09,2H238c-.06-.82-.06-1.55-.06-2.18v-1.6a4.72,4.72,0,0,1,.31-2,1.05,1.05,0,0,1,1-.59,1,1,0,0,1,1,.5,5.67,5.67,0,0,1,.27,2.2c0,.77,0,1.45,0,2.07s-.09,1.15-.09,1.6h2.33a6.62,6.62,0,0,1-.08-1.27Z"/><path class="cls-2" d="M248,87.3a3.66,3.66,0,0,0-2.74,1,3.86,3.86,0,0,0-1,2.79,4.16,4.16,0,0,0,1,3,3.74,3.74,0,0,0,2.86,1,5.44,5.44,0,0,0,1.45-.18,3.76,3.76,0,0,0,1.15-.53l.35-.89-.15-.11a3.63,3.63,0,0,1-1,.55,2.81,2.81,0,0,1-1,.19,2.07,2.07,0,0,1-1.74-.81,3.32,3.32,0,0,1-.65-2.15l4.83.06a.54.54,0,0,0,0-.18,1.6,1.6,0,0,0,0-.31,3.58,3.58,0,0,0-.87-2.58A3.25,3.25,0,0,0,248,87.3Zm1.18,2.93v.2h-2.66V90.3a3.34,3.34,0,0,1,.38-1.78,1.18,1.18,0,0,1,1-.62,1,1,0,0,1,.92.55,3.31,3.31,0,0,1,.31,1.61Z"/><path class="cls-2" d="M190.13,33.15a39.79,39.79,0,0,1,2.07,3.65l2.07-2a18.36,18.36,0,0,0-3.54-3.1,17.75,17.75,0,0,0,1-3.11l-3-.7a32.46,32.46,0,0,1-3.69,10.41l1,.85A26.16,26.16,0,0,0,190.13,33.15Z"/><path class="cls-2" d="M213.34,27.64a24,24,0,0,0-3.76-6.21L208.4,22a55.23,55.23,0,0,1,1.92,6.79Z"/><path class="cls-2" d="M201.63,26h-6.57l1.48-2.07a22.57,22.57,0,0,0-6.13-2.76l-.52,1.14A43,43,0,0,1,194,26h-8.23v1.66h15.93Z"/><path class="cls-2" d="M192.41,46.45v9.62h3.17V45.72a52.62,52.62,0,0,1,3.7,4.72L201.45,48a30.26,30.26,0,0,0-5.87-4V42.65h6.13V41h-6.13V37.48h-.74a24,24,0,0,0,2.4-4A23.78,23.78,0,0,1,199.31,37l1.74-1.59c-.35.93-.74,1.84-1.18,2.73l1,.78c.55-.74,1.07-1.55,1.59-2.37V55.9h3.25V53.1h12.41V51.4l-5.65,0V45h4.28V43.37H212.5V37.62h4.25V36H212.5V31h5.18V29.35h-12a35.94,35.94,0,0,0,1.33-7l-3.35-.66c-.56,5.39-1,9.37-2.29,13.14A15.73,15.73,0,0,0,198,32a18.19,18.19,0,0,0,1-3.21l-3-.75a26,26,0,0,1-2.69,9.45h-1V41h-6.86v1.67h6.08a31.88,31.88,0,0,1-6.89,9.92l.77,1A29.38,29.38,0,0,0,192.41,46.45ZM205.78,31h3.58v4.95h-3.58Zm0,6.61h3.58v5.75h-3.58Zm0,7.42h3.58V51.4h-3.58Z"/><path class="cls-2" d="M259.26,49.53a26.24,26.24,0,0,0-5-7.28l-1,.71a56.69,56.69,0,0,1,3.1,8Z"/><path class="cls-2" d="M259.28,49.52h0v0Z"/><polygon class="cls-2" points="246.91 35.99 240.08 35.99 240.08 37.65 257.46 37.65 257.46 35.99 250.21 35.99 250.21 29.61 257.96 29.61 257.96 27.89 250.21 27.89 250.21 21.68 246.89 21.68 246.89 27.89 239.3 27.89 239.3 29.52 246.89 29.52 246.91 35.99"/><path class="cls-2" d="M243.57,50.71c0,4,.75,4.38,6.13,4.38,5.75,0,5.46-2.35,3.76-8.41l-1.32,0c0,4.91,0,5.39-2.66,5.39-2.33,0-2.66-.48-2.66-2v-9h-3.25Z"/><path class="cls-2" d="M252.79,41.74a25.46,25.46,0,0,0-6.57-4.06l-.66,1.06a67,67,0,0,1,5.05,5.47Z"/><path class="cls-2" d="M238.5,27.89h-5.39L235,26.42a26.32,26.32,0,0,0-5.68-5.06l-.92.92c.85,1.22,2.21,3.54,3.44,5.61h-5.65v1.72H238.5Z"/><path class="cls-2" d="M234.52,55.35h2.8V50.88l2.46,1.86c1.74-2.26,2.55-5.51,2.78-9.42l-1.3-.26a13.84,13.84,0,0,1-3.94,7.49v-7.3h-9.93V55.87h2.87V53.18h4.26Zm-.05-3.79h-4.21V44.84h4.21Z"/><rect class="cls-2" x="227.28" y="33.02" width="10.35" height="1.55"/><rect class="cls-2" x="227.28" y="38.11" width="10.35" height="1.55"/><path class="cls-2" d="M171.89,53.79l-.32-.16A6.68,6.68,0,0,0,170,52.8c-.86-.23-1.77-.12-2.62-.3-1.22-.26-2.43-.56-3.65-.75a10.51,10.51,0,0,0-4.6.15,4.39,4.39,0,0,0-2,1,3,3,0,0,0-.52,1.52,7.68,7.68,0,0,0-.19,1.59,11.34,11.34,0,0,0,1.73,5.62A16.21,16.21,0,0,0,160,64.21a12.27,12.27,0,0,0,2.15,2.23,5.14,5.14,0,0,1,1.83,1.7c.35.57.39.74,1,1a12.19,12.19,0,0,0,3.45.49,19.06,19.06,0,0,0,4.59-.14c1.12-.2,1.34-1,2.25-1.52s1.3-.59,1.69-1.53c1.76-4.36-.44-8-3-11A7.83,7.83,0,0,0,171.89,53.79Z"/></svg>